<svg width="48" height="48" viewBox="0 0 48 48" fill="none" xmlns="http://www.w3.org/2000/svg">
<path d="M15.6 8H32.4C38.8 8 44 13.2 44 19.6V36.4C44 39.4765 42.7779 42.427 40.6024 44.6024C38.427 46.7779 35.4765 48 32.4 48H15.6C9.2 48 4 42.8 4 36.4V19.6C4 16.5235 5.22214 13.573 7.39756 11.3976C9.57298 9.22214 12.5235 8 15.6 8ZM15.2 12C13.2904 12 11.4591 12.7586 10.1088 14.1088C8.75857 15.4591 8 17.2904 8 19.2V36.8C8 40.78 11.22 44 15.2 44H32.8C34.7096 44 36.5409 43.2414 37.8912 41.8912C39.2414 40.5409 40 38.7096 40 36.8V19.2C40 15.22 36.78 12 32.8 12H15.2ZM34.5 15C35.163 15 35.7989 15.2634 36.2678 15.7322C36.7366 16.2011 37 16.837 37 17.5C37 18.163 36.7366 18.7989 36.2678 19.2678C35.7989 19.7366 35.163 20 34.5 20C33.837 20 33.2011 19.7366 32.7322 19.2678C32.2634 18.7989 32 18.163 32 17.5C32 16.837 32.2634 16.2011 32.7322 15.7322C33.2011 15.2634 33.837 15 34.5 15ZM24 18C26.6522 18 29.1957 19.0536 31.0711 20.9289C32.9464 22.8043 34 25.3478 34 28C34 30.6522 32.9464 33.1957 31.0711 35.0711C29.1957 36.9464 26.6522 38 24 38C21.3478 38 18.8043 36.9464 16.9289 35.0711C15.0536 33.1957 14 30.6522 14 28C14 25.3478 15.0536 22.8043 16.9289 20.9289C18.8043 19.0536 21.3478 18 24 18ZM24 22C22.4087 22 20.8826 22.6321 19.7574 23.7574C18.6321 24.8826 18 26.4087 18 28C18 29.5913 18.6321 31.1174 19.7574 32.2426C20.8826 33.3679 22.4087 34 24 34C25.5913 34 27.1174 33.3679 28.2426 32.2426C29.3679 31.1174 30 29.5913 30 28C30 26.4087 29.3679 24.8826 28.2426 23.7574C27.1174 22.6321 25.5913 22 24 22Z" fill="white"/>
</svg>
